<?xml version="1.0" encoding="UTF-8"?>
<!DOCTYPE svg PUBLIC "-//W3C//DTD SVG 1.1//EN" "http://www.w3.org/Graphics/SVG/1.1/DTD/svg11.dtd">
<!-- Creator: CorelDRAW -->
<svg xmlns="http://www.w3.org/2000/svg" xml:space="preserve" width="117.043mm" height="112.211mm" style="shape-rendering:geometricPrecision; text-rendering:geometricPrecision; image-rendering:optimizeQuality; fill-rule:evenodd; clip-rule:evenodd"
viewBox="0 0 112.017 107.392"
 xmlns:xlink="http://www.w3.org/1999/xlink">
 <defs>
  <style type="text/css">
   <![CDATA[
    .str7 {stroke:black;stroke-width:0.0729279}
    .str6 {stroke:black;stroke-width:0.124418}
    .str12 {stroke:black;stroke-width:0.143559}
    .str5 {stroke:black;stroke-width:0.147387}
    .str11 {stroke:black;stroke-width:0.1627}
    .str4 {stroke:black;stroke-width:0.170357}
    .str10 {stroke:black;stroke-width:0.181841}
    .str3 {stroke:black;stroke-width:0.193326}
    .str9 {stroke:black;stroke-width:0.200982}
    .str2 {stroke:black;stroke-width:0.216295}
    .str8 {stroke:black;stroke-width:0.220124}
    .str0 {stroke:black;stroke-width:0.239265}
    .str1 {stroke:#191919;stroke-width:0.239265}
    .str13 {stroke:#4C4C4C;stroke-width:1.33988;stroke-dasharray:2.679767 1.339883}
    .fil20 {fill:none;fill-rule:nonzero}
    .fil12 {fill:#333333}
    .fil6 {fill:white}
    .fil11 {fill:#6E6D6D}
    .fil0 {fill:#990000}
    .fil9 {fill:#BABABC}
    .fil2 {fill:black;fill-rule:nonzero}
    .fil19 {fill:#666666;fill-rule:nonzero}
    .fil13 {fill:url(#id0)}
    .fil14 {fill:url(#id1)}
    .fil15 {fill:url(#id2)}
    .fil16 {fill:url(#id3)}
    .fil17 {fill:url(#id4)}
    .fil18 {fill:url(#id5)}
    .fil10 {fill:url(#id6)}
    .fil8 {fill:url(#id7)}
    .fil7 {fill:url(#id8);fill-rule:nonzero}
    .fil4 {fill:url(#id9);fill-rule:nonzero}
    .fil5 {fill:url(#id10);fill-rule:nonzero}
    .fil1 {fill:url(#id11);fill-rule:nonzero}
    .fil3 {fill:url(#id12);fill-rule:nonzero}
   ]]>
  </style>
  <linearGradient id="id0" gradientUnits="userSpaceOnUse" x1="1.27136" y1="39.1509" x2="57.7649" y2="41.1083">
   <stop offset="0" style="stop-color:#2F2D2A"/>
   <stop offset="0.0588235" style="stop-color:#53514C"/>
   <stop offset="0.74902" style="stop-color:#524F44"/>
   <stop offset="0.921569" style="stop-color:#37332B"/>
   <stop offset="1" style="stop-color:#312E2A"/>
  </linearGradient>
  <linearGradient id="id1" gradientUnits="userSpaceOnUse" x1="1.74864" y1="39.9164" x2="57.6091" y2="41.4645">
   <stop offset="0" style="stop-color:#2C2923"/>
   <stop offset="0.0588235" style="stop-color:#747067"/>
   <stop offset="0.74902" style="stop-color:#716C56"/>
   <stop offset="0.921569" style="stop-color:#3C3424"/>
   <stop offset="1" style="stop-color:#302A22"/>
  </linearGradient>
  <linearGradient id="id2" gradientUnits="userSpaceOnUse" x1="2.22689" y1="40.6772" x2="57.4525" y2="41.8251">
   <stop offset="0" style="stop-color:#29251B"/>
   <stop offset="0.0588235" style="stop-color:#958F82"/>
   <stop offset="0.74902" style="stop-color:#908967"/>
   <stop offset="0.921569" style="stop-color:#41351D"/>
   <stop offset="1" style="stop-color:#2F261A"/>
  </linearGradient>
  <linearGradient id="id3" gradientUnits="userSpaceOnUse" x1="2.70599" y1="41.434" x2="57.2953" y2="42.1902">
   <stop offset="0" style="stop-color:#252013"/>
   <stop offset="0.0588235" style="stop-color:#B5AD9C"/>
   <stop offset="0.74902" style="stop-color:#AFA679"/>
   <stop offset="0.921569" style="stop-color:#453515"/>
   <stop offset="1" style="stop-color:#2D2111"/>
  </linearGradient>
  <linearGradient id="id4" gradientUnits="userSpaceOnUse" x1="3.44187" y1="42.2757" x2="56.881" y2="42.2757">
   <stop offset="0" style="stop-color:#221C0B"/>
   <stop offset="0.0588235" style="stop-color:#D6CCB7"/>
   <stop offset="0.74902" style="stop-color:#CEC38A"/>
   <stop offset="0.921569" style="stop-color:#4A360E"/>
   <stop offset="1" style="stop-color:#2C1D09"/>
  </linearGradient>
  <linearGradient id="id5" gradientUnits="userSpaceOnUse" x1="3.66563" y1="42.5983" x2="56.9786" y2="42.5983">
   <stop offset="0" style="stop-color:#1F1804"/>
   <stop offset="0.0588235" style="stop-color:#F7ECD2"/>
   <stop offset="0.74902" style="stop-color:#EDE09C"/>
   <stop offset="0.921569" style="stop-color:#4F3707"/>
   <stop offset="1" style="stop-color:#2B1A02"/>
  </linearGradient>
  <radialGradient id="id6" gradientUnits="userSpaceOnUse" cx="57.8831" cy="65.6857" r="2.08361" fx="57.8831" fy="65.6857">
   <stop offset="0" style="stop-color:white"/>
   <stop offset="1" style="stop-color:black"/>
  </radialGradient>
  <radialGradient id="id7" gradientUnits="userSpaceOnUse" xlink:href="#id6" cx="60.6542" cy="47.1652" r="37.2781" fx="60.6542" fy="47.1652">
  </radialGradient>
  <radialGradient id="id8" gradientUnits="userSpaceOnUse" xlink:href="#id6" cx="65.1054" cy="48.9152" r="41.7435" fx="65.1054" fy="48.9152">
  </radialGradient>
  <radialGradient id="id9" gradientUnits="userSpaceOnUse" cx="108.719" cy="6.27716" r="6.88604" fx="108.719" fy="6.27716">
   <stop offset="0" style="stop-color:#CCCCCC"/>
   <stop offset="0.65098" style="stop-color:#7F7F66"/>
   <stop offset="1" style="stop-color:#333300"/>
  </radialGradient>
  <radialGradient id="id10" gradientUnits="userSpaceOnUse" cx="6.55136" cy="4.38343" r="5.70369" fx="6.55136" fy="4.38343">
   <stop offset="0" style="stop-color:#CCCCCC"/>
   <stop offset="0.188235" style="stop-color:#7F7F66"/>
   <stop offset="1" style="stop-color:#333300"/>
  </radialGradient>
  <radialGradient id="id11" gradientUnits="userSpaceOnUse" xlink:href="#id10" cx="8.12764" cy="70.2486" r="6.23984" fx="8.12764" fy="70.2486">
  </radialGradient>
  <radialGradient id="id12" gradientUnits="userSpaceOnUse" xlink:href="#id10" cx="107.316" cy="70.7752" r="6.80594" fx="107.316" fy="70.7752">
  </radialGradient>
 </defs>
 <g id="Layer_x0020_1">
  <metadata id="CorelCorpID_0Corel-Layer"/>
  <path class="fil0 str0" d="M56.9741 2.80648c6.46111,0.358419 13.3474,0.0443119 16.5089,0.0138774 14.0227,-0.135137 22.2799,-0.800197 35.6162,-1.75496 0.418522,-0.0301474 0.790053,0.100587 1.09765,0.385886 0.30779,0.285395 0.465801,0.646015 0.467428,1.06569l0.25764 69.7686c0.00277547,0.749282 -0.553085,1.37328 -1.29758,1.45693 -12.4326,1.39616 -21.1065,1.46947 -33.8259,1.72931 -4.77707,0.0975244 -10.4597,0.840968 -18.8216,-0.112742l-0.004881 -0.255918 -3.41048 -0.500829 0 -0.107861c-3.78795,0.6419 -8.89874,0.901263 -14.0795,0.816946 -12.6189,-0.205289 -23.4044,-1.12397 -35.0132,-1.8454 -0.745071,-0.0463217 -1.32983,-0.637497 -1.36812,-1.38305 -0.885759,-17.3351 -1.79296,-46.5488 -2.69068,-70.0283 -0.0168442,-0.441109 0.143272,-0.827187 0.467045,-1.12732 0.32406,-0.299751 0.721431,-0.429911 1.15996,-0.379283 13.3371,1.53847 25.2919,1.84693 38.535,2.32173 4.06645,0.14576 8.62224,0.822784 13.0646,-0.263574l0.000574236 0.0224909c1.17001,-0.729088 2.27531,-0.627831 3.33631,0.0479487l0.000574236 0.129873z"/>
  <path class="fil1 str0" d="M9.22165 75.0069c-0.658744,-0.0434505 -1.3194,-0.086901 -1.98226,-0.129586 -0.764116,-0.0492886 -1.4376,-0.0921648 -1.99088,-0.126523l-0.0116761 -0.000861354 -9.57059e-005 0.000861354 -0.00995342 -0.000669942c-0.198398,-0.0138774 -0.390289,-0.0477573 -0.573087,-0.0995342 -0.178109,-0.050437 -0.356792,-0.123078 -0.532699,-0.214956 -0.85542,-0.446277 -1.44506,-1.31586 -1.49732,-2.33456 -0.0513941,-1.00539 -0.105372,-2.11118 -0.161456,-3.30415 -0.051107,-1.0876 -0.105181,-2.28153 -0.161839,-3.5683 -0.0354112,-0.823071 0.603043,-1.51914 1.42611,-1.55465 0.541887,-0.0233523 1.02903,0.24539 1.30849,0.666688l0.000669942 -0.000382824 5.52443 8.35226c0.455082,0.687456 0.266637,1.61379 -0.420819,2.06888 -0.282141,0.186722 -0.604096,0.264914 -0.917629,0.244912l0 0.000574236z"/>
  <polygon class="fil2" points="109.254,72.2752 109.254,72.2738 109.253,72.2751 "/>
  <path class="fil2" d="M109.254 72.2856l0 -0.0103362 -0.000191412 -9.57059e-005 -0.000382824 0.00181841c0.000191412,0.00526383 0.000574236,0.0166528 0.000574236,0.00861354z"/>
  <path class="fil3 str0" d="M111.881 66.6344l0.0167485 4.53474c0.000382824,0.114369 -0.00440247,0.220124 -0.0138774,0.316691 -0.0221081,0.222421 -0.0643144,0.431347 -0.124322,0.624194 -0.0624003,0.200313 -0.144612,0.392777 -0.244242,0.574331 -0.475754,0.866809 -1.35079,1.48583 -2.40031,1.60346 -1.53656,0.172558 -3.12824,0.334301 -4.77908,0.487239 -1.67485,0.155139 -3.16078,0.278983 -4.49368,0.37622 -0.921361,0.0649843 -1.72108,-0.629267 -1.78606,-1.55063 -0.0459389,-0.65147 0.287501,-1.24226 0.812544,-1.55541l10.4211 -6.89322c0.769572,-0.509443 1.80664,-0.298507 2.31608,0.471065 0.205863,0.311044 0.293817,0.665443 0.275059,1.01132z"/>
  <path class="fil4 str1" d="M104.822 0.442353l1.79382 -0.129012c0.694634,-0.0499585 1.40669,-0.101448 2.13893,-0.153799l0.00593377 -0.00047853c0.0164614,-0.00114847 0.0328271,-0.00172271 0.0491929,-0.00229694l0.000191412 0 0.00918777 -0.000287118c0.063453,-0.00239265 0.133318,-0.00220124 0.208543,0.000861354 0.0867096,0.00344541 0.175908,0.0125375 0.26769,0.0269891 0.464174,0.0729279 0.876571,0.274102 1.22743,0.599311 0.0586677,0.0545524 0.110732,0.106808 0.155522,0.156671 0.0469916,0.0522554 0.100491,0.120015 0.160307,0.203184 0.0534996,0.0744592 0.101353,0.149301 0.142793,0.223856 0.191316,0.342149 0.289032,0.721527 0.290659,1.13105l-9.57059e-005 0.004881 9.57059e-005 0 0.0256492 6.95438c0,0.692145 -0.561124,1.25327 -1.25327,1.25327 -0.436419,0 -0.820966,-0.222899 -1.0453,-0.56122l-0.001627 0.000957059 -5.13405 -7.76204c-0.382728,-0.578064 -0.224239,-1.35711 0.353921,-1.73984 0.187201,-0.124035 0.395457,-0.190933 0.604574,-0.205385l-9.57059e-005 -0.00105277z"/>
  <path class="fil5 str0" d="M9.41804 1.86349l-8.25703 5.46184c-0.254004,0.16806 -0.596248,0.0985771 -0.764308,-0.155426 -0.0624003,-0.0942704 -0.0918777,-0.2006 -0.0914949,-0.305685l-0.0920691 -2.47218c-0.0307216,-0.824124 -0.061826,-1.64126 -0.0926434,-2.44979l-9.57059e-005 -0.00449818 -0.000287118 -0.00995342 -0.000191412 -0.0156001c-0.00181841,-0.0748421 -0.000574236,-0.140401 0.00421106,-0.196293 0.00555095,-0.0658457 0.01627,-0.136094 0.0316787,-0.210362 0.0731193,-0.350475 0.250654,-0.660467 0.527053,-0.916384l0.00105277 -0.000957059 -0.00105277 -0.00124418 0.00306259 -0.00277547c0.054361,-0.0500542 0.109679,-0.0957059 0.165476,-0.136094 0.0523512,-0.0381867 0.111976,-0.0759905 0.178587,-0.113124 0.31717,-0.177056 0.670803,-0.246443 1.04578,-0.203279 1.2459,0.143655 2.44031,0.271039 3.58964,0.383972 1.12129,0.110062 2.29847,0.215626 3.52428,0.317074 0.303962,0.025075 0.530307,0.291903 0.505232,0.595961 -0.0155044,0.188636 -0.124035,0.347508 -0.276877,0.434792z"/>
  <path class="fil6 str0" d="M55.1178 4.17154c6.45326,0.583328 12.909,1.31414 16.2108,1.2414 14.2844,-0.314394 22.4975,-0.368659 36.5134,-2.99005l0.263478 71.9215c-12.9063,2.21942 -21.5962,3.27534 -34.5027,3.70344 -4.66815,0.154757 -10.1272,-0.176003 -18.2216,-1.95479l-0.263478 -71.9215z"/>
  <g id="_43521432">
   <path id="_43045248" class="fil6 str2" d="M55.118 4.33031c6.3654,0.773687 12.8362,1.58317 16.1167,1.55608 14.1839,-0.117335 22.5516,-0.0945575 36.1341,-2.78734 0.143176,23.9185 0.286448,47.8371 0.429624,71.7555 -12.8315,2.13386 -21.4711,3.13207 -34.3026,3.4746 -4.64107,0.123748 -10.0685,-0.243189 -18.1158,-2.07567 -0.0872838,-23.9743 -0.174568,-47.9488 -0.261947,-71.9232z"/>
   <path id="_43790008" class="fil6 str3" d="M55.118 4.4888c6.27774,0.964142 12.7633,1.85229 16.0227,1.87086 14.0833,0.0796274 22.6056,0.179449 35.7547,-2.58463 0.19859,23.8632 0.39718,47.7265 0.595865,71.5896 -12.7567,2.0482 -21.3459,2.9888 -34.1026,3.24568 -4.61408,0.0928348 -10.0099,-0.310279 -18.0102,-2.19645 -0.0867096,-23.975 -0.173515,-47.95 -0.260416,-71.925z"/>
   <path id="_43793600" class="fil6 str4" d="M55.118 4.64748c6.18997,1.1546 12.6906,2.12123 15.9287,2.18554 13.9828,0.276686 22.6596,0.45355 35.3754,-2.38203 0.253908,23.8079 0.507911,47.6158 0.761915,71.4237 -12.6818,1.96264 -21.2207,2.84563 -33.9026,3.01684 -4.58699,0.0619217 -9.95112,-0.377464 -17.9045,-2.31742 -0.0863268,-23.9755 -0.172654,-47.9511 -0.25898,-71.9267z"/>
   <path id="_43753608" class="fil6 str5" d="M55.118 4.80597c6.10231,1.34505 12.6178,2.39035 15.8347,2.50032 13.8822,0.473649 22.7136,0.727557 34.996,-2.17932 0.309322,23.7526 0.618643,47.5052 0.928156,71.2578 -12.6071,1.87699 -21.0955,2.70235 -33.7026,2.78791 -4.56001,0.0310087 -9.89255,-0.444554 -17.7989,-2.4382 -0.0857525,-23.9762 -0.171601,-47.9523 -0.257449,-71.9285z"/>
  </g>
  <path class="fil6 str6" d="M55.1178 4.96475c6.01464,1.53541 12.5451,2.65938 15.7409,2.815 13.7818,0.670707 22.7677,1.00166 34.6167,-1.97661l1.0943 71.0918c-12.5322,1.79142 -20.9703,2.55908 -33.5025,2.55908 -4.53292,0 -9.83379,-0.51174 -17.6934,-2.55908l-0.255918 -71.9302z"/>
  <path class="fil2" d="M73.2819 55.5752l0 -0.725834c1.20982,0 2.11711,-0.302527 2.72207,-0.907388 0.604862,-0.604862 0.959165,-1.27892 1.06281,-2.02208 0.103745,-0.743157 0.155522,-1.59858 0.155522,-2.56645l0 -24.7314c0,-0.207395 -0.00861354,-0.37153 -0.0258406,-0.492503 -0.0173228,-0.120972 -0.0259363,-0.250654 -0.0259363,-0.388853 -0.0345498,-0.207395 -0.0518726,-0.492599 -0.0518726,-0.855515 0,-0.362917 -0.0345498,-0.613571 -0.103745,-0.75177 -0.380144,-1.24437 -1.41712,-1.81468 -3.11083,-1.71103 -1.17517,0.0691954 -2.29857,0.362917 -3.37009,0.881452 -1.07152,0.518439 -2.05663,1.20972 -2.9553,2.07385 -0.898679,0.864129 -1.53819,1.69371 -1.91843,2.48874l-0.725834 0 1.60729 -7.05133 25.2498 0 1.60729 7.05133 -0.725834 0c-1.00242,-1.93565 -2.34183,-3.30099 -4.01821,-4.09593 -1.67639,-0.795029 -3.08489,-1.24437 -4.22561,-1.34811 -0.725834,-0.138199 -1.41712,-0.112263 -2.07385,0.0778089 -0.656734,0.190072 -1.07152,0.734543 -1.24437,1.63322 0,0.276494 0,0.544375 0,0.803643 0,0.259172 0,0.527053 0,0.803643l0 0.881356 0 24.7314c0,0.967874 0.0518726,1.82329 0.155522,2.56645 0.103745,0.743157 0.458049,1.41721 1.06291,2.02208 0.604862,0.604862 1.51225,0.907388 2.72197,0.907388l0 0.725834 -11.7694 0z"/>
  <g id="_43312824">
   <path id="_43523648" class="fil7 str7" d="M56.7535 89.9293c-0.496427,1.85851 -1.28571,3.93342 -2.04868,5.93913 -0.238882,0.627544 -0.476903,1.25298 -0.549448,1.44707l-0.00258406 0.00717795c-0.7355,1.96475 -1.5803,3.64467 -2.49371,5.09864 -0.925668,1.47311 -1.90254,2.69345 -2.89683,3.72909 -1.73036,1.803 -3.02038,1.46334 -4.10569,-0.218975l0.00296688 -0.00306259c-0.694825,-1.08129 -0.943565,-2.60894 -1.22484,-4.33605 -0.115326,-0.707745 -0.237351,-1.45731 -0.365788,-2.06045l-0.000287118 -0.00191412 -0.000191412 0c-0.779238,-3.65664 0.376412,-5.90295 1.73266,-8.53841 0.319754,-0.621802 0.653959,-1.27136 0.937153,-1.90809 0.564474,-1.26906 1.35625,-2.7325 2.21109,-4.06779 1.35433,-3.10173 3.36387,-4.22838 4.51368,-5.95875 1.28074,-1.92752 0.766796,-3.33526 1.63638,-6.38875l14.239 -48.7991c0.400817,3.53126 1.71984,7.16866 1.22092,10.6056l-7.85363 28.373c-1.54881,5.15491 -4.35653,7.422 -5.80772,12.0832l0.333535 5.02734c0,0 1.36716,4.83554 1.1545,7.511 -0.0796274,1.00108 -0.329611,1.7898 -0.632521,2.46022zm-3.6754 -6.87217c-1.35414,-0.287883 -4.23901,4.12952 -5.64129,7.28428 -1.40334,3.15418 -3.20491,5.22956 -2.49027,8.5809 0.714158,3.35143 0.741051,7.1946 2.56262,5.2979 1.82014,-1.89737 3.54313,-4.41425 4.88464,-7.99882 1.3417,-3.58457 3.09695,-7.82329 2.91807,-9.76373 -0.179736,-1.94073 -0.879346,-3.11255 -2.23378,-3.40053z"/>
   <g>
    <path id="_42864552" class="fil8 str7" d="M73.7388 84.0764c1.24054,-0.713201 3.68286,1.11813 5.45333,4.09086 1.77085,2.97263 2.19999,5.96124 0.959452,6.67444 -1.24092,0.713488 -3.68296,-1.11804 -5.45371,-4.09057 -1.77066,-2.97291 -2.1999,-5.96133 -0.959069,-6.67472zm-1.37041 4.16589c0.382537,0.998117 0.882026,2.02035 1.46794,3.00421 2.4494,4.11191 5.82801,6.64611 7.5446,5.65909 1.71658,-0.986824 1.12225,-5.1219 -1.32706,-9.23371 -2.08926,-3.50734 -5.77404,-5.55975 -6.78919,-5.86907 -1.01496,-0.309417 -4.89191,-2.8931 -6.29745,-4.62509 -1.40563,-1.7318 -5.42777,-8.79911 -6.63281,-11.0041 -1.20503,-2.20497 -21.9056,-43.6121 -21.9056,-43.6121l-0.367607 8.47476 18.0985 38.9867c0,0 2.34221,0.792158 4.39262,2.82179 2.0505,2.02964 5.54807,5.23234 6.49719,6.82565 0.949116,1.59341 4.24523,5.71403 5.31886,8.57181z"/>
    <polygon id="_43258800" class="fil9 str7" points="38.4289,22.5616 38.2452,26.7989 52.2906,56.3414 56.4382,58.4976 "/>
   </g>
   <path id="_42345728" class="fil10 str7" d="M56.444 64.364c0.880495,-0.121738 1.89766,0.707363 2.27129,1.85143 0.373732,1.14397 -0.0373253,2.17052 -0.917724,2.29197 -0.880399,0.121834 -1.89756,-0.707267 -2.2712,-1.85124 -0.373732,-1.14407 0.0372296,-2.17061 0.917629,-2.29216z"/>
   <path id="_43258848" class="fil11 str7" d="M58.6044 67.9833c-0.136955,0.214381 -0.327314,0.375646 -0.562272,0.463025l-2.40509 -3.55854c0.137051,-0.214381 0.327123,-0.375646 0.562177,-0.462834l2.40519 3.55835z"/>
  </g>
  <path class="fil12 str0" d="M2.84668 1.6471c14.189,1.89402 26.7679,2.58559 40.6933,3.11054 3.60151,0.135807 6.85446,-0.354973 11.7421,-0.922701 -0.132648,14.7663 -0.265393,29.5325 -0.397945,44.2988 1.42114,7.491 -1.41846,19.2634 1.50775,26.3273 -4.60355,1.79688 -9.50944,0.352964 -14.5332,1.10167 -12.9367,1.9278 -23.5929,-1.92321 -35.394,-3.01167 -4.14254,-17.2041 -2.41208,-47.2694 -3.61797,-70.9039z"/>
  <g id="_41946696">
   <path id="_84491016" class="fil13 str8" d="M3.13858 2.35446c13.8792,2.03165 26.5102,2.51506 40.3367,2.95138 3.62343,0.112837 7.08444,-0.382058 11.8223,-1.23997 -0.13217,14.7672 -0.264436,29.5343 -0.396414,44.3016 1.41549,7.48114 -1.32601,18.2759 1.58872,25.3195 -4.58546,1.82884 -9.55892,1.41635 -14.5629,2.19999 -12.8857,2.01777 -23.4999,-1.75908 -35.2545,-2.76552 -4.12617,-17.1753 -2.31876,-47.1827 -3.53385,-70.767z"/>
   <path id="_43649056" class="fil14 str9" d="M3.43029 3.06182c13.5695,2.16918 26.2524,2.44452 39.9801,2.79222 3.64525,0.0898679 7.31433,-0.409143 11.9024,-1.55723 -0.131596,14.7681 -0.263287,29.5362 -0.394787,44.3044 1.40994,7.47119 -1.23346,17.2885 1.66969,24.3117 -4.56728,1.86091 -9.6083,2.47984 -14.5926,3.29841 -12.8347,2.10773 -23.4069,-1.59504 -35.1151,-2.51946 -4.1099,-17.1465 -2.22535,-47.0959 -3.44972,-70.63z"/>
   <path id="_43525312" class="fil15 str10" d="M3.72191 3.76919c13.2597,2.3068 25.9946,2.37399 39.6235,2.63306 3.66716,0.0668985 7.54431,-0.436228 11.9826,-1.8745 -0.131117,14.7691 -0.26233,29.538 -0.393256,44.3072 1.40429,7.46133 -1.14101,16.301 1.75056,23.3038 -4.5491,1.89297 -9.65769,3.54332 -14.6221,4.39683 -12.7837,2.1977 -23.314,-1.431 -34.9756,-2.2733 -4.09353,-17.1177 -2.13204,-47.0093 -3.3656,-70.4931z"/>
   <path id="_85285848" class="fil16 str11" d="M4.01372 4.47665c12.9499,2.44433 25.7369,2.30345 39.2669,2.47381 3.68908,0.0440247 7.77429,-0.463217 12.0628,-2.19167 -0.130639,14.7699 -0.261277,29.5397 -0.391724,44.3098 1.39865,7.45147 -1.04855,15.3136 1.83152,22.296 -4.53101,1.92493 -9.70717,4.60671 -14.6517,5.49515 -12.7328,2.28776 -23.2211,-1.26686 -34.8363,-2.02705 -4.07717,-17.0889 -2.03863,-46.9227 -3.28147,-70.3561z"/>
   <path id="_43523600" class="fil17 str12" d="M4.30543 5.18401c12.6402,2.58186 25.4791,2.23292 38.9103,2.31465 3.7109,0.0210553 8.00418,-0.490302 12.1429,-2.50893 -0.130064,14.7708 -0.260224,29.5417 -0.390097,44.3126 1.3931,7.44152 -0.956007,14.3261 1.91249,21.2883 -4.51282,1.957 -9.75655,5.67019 -14.6814,6.59357 -12.6819,2.37762 -23.1281,-1.10282 -34.6969,-1.78099 -4.0609,-17.0601 -1.94532,-46.836 -3.19734,-70.2192z"/>
  </g>
  <path class="fil18 str6" d="M4.59695 5.89137c12.3304,2.71948 25.2214,2.16238 38.5537,2.15549 3.73282,-0.00191412 8.23416,-0.517386 12.2231,-2.8262 -0.129586,14.7717 -0.259172,29.5435 -0.388566,44.3154 1.38745,7.43166 -0.863555,13.3387 1.99346,20.2805 -4.49473,1.98896 -9.80603,6.73358 -14.7111,7.69189 -12.6309,2.46768 -23.0352,-0.938684 -34.5574,-1.53484 -4.04453,-17.0313 -1.85191,-46.7493 -3.11322,-70.0822z"/>
  <path class="fil19 str13" d="M38.7884 26.1694l-0.556243 0.0774261 -0.57146 -0.966917 -0.556434 0.0774261 -0.179927 -0.299273 -0.00689083 -0.0112933 -0.00114847 -0.00172271c-0.498245,-0.652906 -1.11612,-1.23748 -1.8521,-1.75314 -1.00979,-0.707458 -2.1219,-1.21451 -3.3344,-1.52038l-0.632042 -0.11858 -0.313246 -0.0590506 -0.370573 -0.0696739 -0.59041 0.544567 -1.15603 -1.11593 -0.590506 0.544567 -0.0340713 -0.00047853 -0.450584 0.664486 -1.37989 -0.821636 -0.450775 0.664582 -0.470682 0.104702 -0.336311 0.586965 -1.35271 -0.0080393 -0.336406 0.586965 -0.27592 0.158968 -0.330664 0.226249 -0.0249793 0.0174185 -0.0192369 0.013686 -0.013016 0.00947489 -0.133127 0.0998213 -0.256109 0.211319 -0.689083 0.709755 -0.152268 0.210936c-0.020194,0.0306259 -0.040675,0.0617303 -0.0603905,0.0925477 -0.649078,1.01822 -1.05324,2.04753 -1.21202,3.08585l0.00220124 0.210553 0.0189498 1.95412 0.000287118 0.0410579 0.35861 0.954667 0.0512984 0.0933133 0.0891022 0.162413 0.127385 0.232565 0.158585 0.289606 0.178683 0.326357 0.0952274 0.174089 0.132936 0.246443 0.0693868 0.163083 0.00736936 0.0115804 0.702769 -0.0690997 0.464748 1.41453 0.741051 -0.0727365 0.0281375 0.00918777 0.68736 -0.234575 0.852644 1.17623 0.687552 -0.234384 0.403783 0.0963759 0.632042 -0.1471 1.01534 0.809098 0.632138 -0.147004 0.382537 0.0696739 0.651375 -0.363108 1.00357 1.1032 0.65147 -0.362917 0.172749 0.022778 0.65348 -0.486856 1.00979 1.2794 0.653672 -0.486665 0.0148344 0.00200982 1.83708 0.280323c0.315255,0.0579978 0.641421,0.123556 0.977541,0.198207 0.238595,0.0530211 0.4725,0.109583 0.700759,0.169591l0.724781 -0.308939 0.756938 1.38219 0.724877 -0.308747 0.797231 -0.214286 0.431251 1.5937 0.797326 -0.214094 0.670612 0.146239 0.340617 1.33003 0.670707 0.146334 0.765073 1.30581 0.212754 0.362726c0.313246,0.745549 0.518152,1.5534 0.616251,2.41705 0.0588592,0.519875 0.0798188,1.03985 0.0623046,1.55895l-0.01694 0.108722 0.337172 0.643144 -1.03094 1.02329 0.336981 0.643144 0.00842212 -0.0558923 0.0648886 -0.420149 0.0483315 -0.31315 0.0644101 -0.417565 0.043929 -0.283672 0.046226 -0.298028 0.015313 -0.09896 0.0305302 -0.197537 0.0108148 -0.0691954 0.0241179 -0.155426 0.335928 0.648216 -1.0565 1.00855 0.335832 0.648408 -0.105372 0.289415 -0.132457 0.352676 -0.144995 0.374402 -0.0526383 0.131787 -0.0987685 0.245773 -0.0839341 0.182416 0.111593 0.702769 -1.23997 0.698653 0.111497 0.702864 -0.0893894 0.662381 -1.21996 0.547151 -0.0895808 0.662572 -0.500542 0.557487 -0.00306259 0.00354112c-1.82846,1.85727 -4.22513,3.25783 -7.19852,4.1434 -1.10225,0.32808 -2.1552,0.575001 -3.15476,0.748038l-0.543801 0.384451 -1.23394 -0.501882 -0.543993 0.384451 -0.404549 0.00287118 -0.514802 -0.00564665 -0.591271 0.293626 -1.15393 -0.642187 -0.591271 0.29353 -0.627735 0.383972 -1.06865 -1.01238 -0.627735 0.383877 -0.169304 -0.0246921 -0.624481 0.2251 -1.06205 -0.797422 -0.624577 0.225005 -0.536432 -0.198111 -0.140688 -1.13555 -0.536623 -0.198207 -0.0152172 -0.0844126 -0.35593 -0.529445 0.29688 -1.24073 -0.356026 -0.529637 -0.433165 -0.515855 0.453742 -1.26849 -0.433261 -0.515855 0.359376 -0.878198 0.0902507 -0.220794 0.0786703 -0.19256 0.0480444 -0.0129203 0.661615 0.249601 0.0184712 1.41415 0.554233 0.209022 0.0336885 0.0379953 0.0876667 0.0962802 0.00880495 0.00909207 0.0544567 0.0556052 0.63453 0.191029 0.385312 1.26849 0.634626 0.191029 0.779142 -0.146813 0.426466 1.52728 0.779142 -0.146622 0.353633 0.131404 0.351719 0.124035 0.619409 0.210745 0.529637 0.167103 0.278313 0.0818286 0.42838 0.121547 0.270848 0.0647929 0.261851 0.0517769 0.237064 0.0366554 0.134371 0.0188541 0.479008 0.058572 0.441396 0.042302 0.329037 0.0273719 0.550979 -0.26501 1.14924 0.417182 0.550979 -0.265105 0.114177 -0.0125375 0.541791 -0.391246 1.2369 0.505902 0.541887 -0.391342 0.597971 -0.156862 0.0629745 -0.0165571 0.0726408 -0.0189498 0.136668 -0.044599 0.595961 -0.221272 0.88394 -0.420532 1.03286 -0.594047 0.301091 -0.194379 0.0524469 -0.786607 1.57599 -0.0502456 0.0524469 -0.786703 0.0405793 -0.0392394 0.0257449 -0.0246921 0.1092 -0.625726 1.05478 -0.708128 0.109392 -0.625726 0.0311044 -0.0479487 0.0223952 -0.0362726c0.680086,-1.39999 0.958591,-2.87644 0.806801,-4.42544 -0.178587,-1.82262 -0.801729,-3.13427 -1.83688,-3.93811 -1.03496,-0.803643 -2.35877,-1.37309 -3.97151,-1.70864 -0.142889,-0.0252664 -0.343584,-0.0580935 -0.601895,-0.0980029l-0.816659 -0.121642c-0.00430677,-0.000669942 -0.00861354,-0.0015313 -0.0132074,-0.00210553l-0.965482 -0.136285 -1.03104 -0.144037 -0.622376 0.219741 -1.06808 -0.776175 -0.622471 0.219549 -0.465801 -0.0804887 -0.663338 0.357079 -0.968449 -1.1545 -0.663434 0.356983 -0.104511 -0.0239265 -0.705066 0.423977 -0.859918 -1.40305 -0.705161 0.423977 -0.142985 -0.0456517 -0.676067 0.175716 -0.861736 -1.09995 -0.676163 0.175716 -0.257258 -0.14777 -0.632521 -0.0737893 -0.755981 -1.02568 -0.632712 -0.0736936 -0.126236 -0.0995342c-0.228833,-0.189976 -0.440247,-0.388375 -0.632712,-0.59443 -1.01314,-1.08397 -1.58633,-2.60119 -1.71639,-4.5491 -0.0646972,-0.75579 -0.0560837,-1.49368 0.0246921,-2.21349l0.0104319 -0.0902507 -0.116953 -0.629841 0.787277 -1.01075 -0.116953 -0.630032 -0.216965 -0.754546 1.45626 -0.58773 -0.216678 -0.754641 -0.0668028 -0.789765 1.5623 -0.269604 -0.0666113 -0.789765 0.368851 -0.346647 0.827856 -0.691954 0.216487 -0.679895 1.4265 -0.0441204 0.216583 -0.680086 1.58939 -0.794168c0.884993,-0.369999 1.83794,-0.669846 2.85654,-0.896669 0.826804,-0.184043 1.64681,-0.320328 2.45983,-0.409143l0.321572 -0.0208639 0.367415 -0.0138774 0.573949 -0.352198 1.18781 0.634243 0.574236 -0.352294 0.635488 -0.517578 1.05525 1.25471 0.635679 -0.517482 0.659893 -0.290946 0.964907 1.07267 0.660084 -0.290946 0.0151215 0.047183 0.0465131 0.150354 0.439099 0.47719 -0.198111 1.2815 0.439099 0.477286 0.601225 0.461686 -0.680661 1.35462 0.60132 0.461686 0.297646 1.30725z"/>
  <polyline class="fil20" points="1.07698,2.01873 1.07698,2.01901 1.07698,2.02016 "/>
 </g>
</svg>
